<?xml version="1.0" encoding="UTF-8"?>
<svg id="a" data-name="Layer 1" xmlns="http://www.w3.org/2000/svg" xmlns:xlink="http://www.w3.org/1999/xlink" viewBox="0 0 541.24 1206.57">
  <defs>
    <style>
      .f {
        fill: #006300;
      }

      .g {
        fill: url(#c);
      }

      .h {
        fill: url(#d);
      }

      .i {
        fill: url(#e);
      }

      .j {
        fill: url(#b);
      }

      .k {
        fill: #192731;
      }
    </style>
    <linearGradient id="b" x1="319.81" y1="1131.05" x2="319.81" y2="1094.65" gradientUnits="userSpaceOnUse">
      <stop offset="0" stop-color="#193b31"/>
      <stop offset=".18" stop-color="#144b34"/>
      <stop offset="1" stop-color="#009245"/>
    </linearGradient>
    <linearGradient id="c" x1="313.85" y1="1138.98" x2="313.85" y2="1020.93" xlink:href="#b"/>
    <linearGradient id="d" x1="169.5" y1="987.12" x2="262.2" y2="1079.81" gradientUnits="userSpaceOnUse">
      <stop offset="0" stop-color="#193b31"/>
      <stop offset=".18" stop-color="#174032"/>
      <stop offset=".43" stop-color="#125136"/>
      <stop offset=".71" stop-color="#0a6d3c"/>
      <stop offset="1" stop-color="#009245"/>
    </linearGradient>
    <linearGradient id="e" x1="220.86" y1="941.32" x2="308.01" y2="1028.47" xlink:href="#d"/>
  </defs>
  <g>
    <g>
      <path class="j" d="M323.92,1110.63c-8.34,2.61-15.53,8.95-18.35,17.01-.77-5.4.07-10.82,3-15.38,2.47-3.84,6.32-6.16,10.45-7.97l8.47-3.71c2.81-1.23,4.76-3.42,6.78-5.93.39,11.29-2.62,24.63-11.07,31.84-4.42,3.77-9.9,5.3-15.44,4.23,1.03-5.93,4.12-10.68,8.51-14.44l7.64-5.65Z"/>
      <path class="g" d="M268.84,1057.55l18.93-.03.02,56.75.45,3.65c.73,5.98,4.13,10.82,9.8,13.19,7.99,3.34,16.72,4.3,25.51,3.96,5.02-.2,9.8-1.27,14.37-2.97,10.35-3.86,16.63-13.1,16.92-24.03.31-11.56-5.97-21.58-16.72-26.12-6.56-2.73-13.63-3.57-20.84-3.54-5.19.02-10.07.11-15.19,1.16l.1,42.03c0,2.8.41,5.17,1.14,8.11-9.21-1.92-13.71-8.38-13.72-18.03l-.04-89.57c14.6.27,28.53-1.89,43.06-.93,14.46,1.09,29.54,6.57,32.16,21.97,1.43,8.23-.85,16.46-6.73,22.32-4.6,4.58-10.21,6.91-16.42,8.95,7.02,1.4,13.12,2.85,18.73,6.39,8.96,5.1,14.1,14.03,14.25,24.33s-4.58,20.05-13.27,26.03c-6.04,4.16-12.97,6.71-20.34,7.23l-8.31.58h-77.92c-.71,0-1.27-.39-1.56-.62s-.2-1.44.17-1.48l7.3-.79c3.98-.43,6.93-3.57,7.28-7.64l.81-9.38.04-61.5ZM345.53,1055.26c2.7-11.84-1.59-22.89-12.42-27.95-8.91-4.15-20.57-3.75-30.42-1.61l-.48,8.25-.09,40.53c8.02.68,15.79.78,23.54-.73,9.77-1.9,17.47-8.71,19.87-18.49Z"/>
    </g>
    <g>
      <path class="h" d="M287.92,1003.18l-.13,51.04-84.93-.02-.02,44.97c0,3.22.2,6.12.91,9.13.73,3.34,3.12,5.68,6.38,6.6l7.53,1.3c.35.06.57.1.68.21.24.26.15.88-.26.92l-6.74.64h-39.03s-4.37-.3-4.37-.3c-.14-.69-.13-1.18.04-1.8,6.61.24,13.73-1.53,14.49-8.31l.83-7.44.03-97.48-.83-5.84c-.44-3.06-2.65-4.87-5.38-5.78l-9.7-1.83c4.66-1.43,9.11-1.25,13.74-1.25h32.04s4.43.61,4.43.61c.61.08.78,1.26.33,1.3-7.06.55-13.54.6-14.67,8.34-.31,1.18-.43,2.32-.43,3.68v46.55s65.96-.03,65.96-.03l-.02-43.56-.61-6.97c-.62-4-3.46-6.44-7.33-7.23-2.74-.56-5.46-.38-8.3-1.5,2.93-.92,5.7-1.09,8.7-1.1l34.6-.11c2.54,0,4.92.14,7.26.73.25.09.25,1.1,0,1.27-6.33.16-13.05.7-14.5,7.26l-.69,6.02Z"/>
      <path class="i" d="M319.58,1011.71c2.92-2.42,5.77-4.68,7.71-7.97,4.97-8.43-.97-15.48-8.85-20.07-17.6-10.25-44.82-13.39-65.36-14.16-22.56-.79-44.69,1.67-66.82,6.42,19.92-6.56,40.66-9.66,61.67-10.45l16.52.02c20.2.72,56.58,4.99,69.98,20.25,3.32,3.78,4.28,8.88,1.87,13.32-1.62,3-3.97,5.29-6.67,7.35-3.15,2.02-6.09,4.2-10.05,5.3Z"/>
    </g>
  </g>
  <path class="k" d="M119.32,1161.96c.11,0,.22-.07.22-.26v-.78c0-5.61,0-6.65-.07-7.83-.07-1.26-.37-1.85-1.59-2.1-.3-.07-.92-.11-1.44-.11-.41,0-.63-.07-.63-.33s.26-.33.78-.33c1.99,0,4.32.11,5.32.11.89,0,3.21-.11,4.65-.11.52,0,.78.07.78.33s-.22.33-.66.33c-.3,0-.63.04-1.07.11-1,.18-1.29.81-1.37,2.1-.07,1.18-.07,2.22-.07,7.83v6.5c0,3.4,0,6.31.18,7.9.11,1.03.33,1.85,1.44,1.99.52.07,1.33.15,1.88.15.41,0,.59.11.59.3,0,.26-.3.37-.74.37-2.4,0-4.73-.11-5.76-.11-.85,0-3.18.11-4.62.11-.52,0-.78-.11-.78-.37,0-.18.15-.3.59-.3.55,0,1-.07,1.33-.15.74-.15.92-.96,1.07-2.03.18-1.55.18-4.47.18-7.87v-3.25c0-.15-.11-.22-.22-.22h-14.11c-.11,0-.22.04-.22.22v3.25c0,3.4,0,6.31.18,7.9.11,1.03.33,1.85,1.44,1.99.52.07,1.33.15,1.88.15.41,0,.59.11.59.3,0,.26-.3.37-.74.37-2.4,0-4.73-.11-5.76-.11-.85,0-3.18.11-4.65.11-.52,0-.78-.11-.78-.37,0-.18.15-.3.59-.3.55,0,1-.07,1.33-.15.74-.15.92-.96,1.07-2.03.18-1.55.18-4.47.18-7.87v-6.5c0-5.61,0-6.65-.07-7.83-.07-1.26-.37-1.85-1.59-2.1-.3-.07-.92-.11-1.44-.11-.41,0-.63-.07-.63-.33s.26-.33.78-.33c1.99,0,4.32.11,5.32.11.89,0,3.21-.11,4.65-.11.52,0,.78.07.78.33s-.33.33-.66.33c-.3,0-.78.04-1.07.07-1,.15-1.29.85-1.37,2.14-.07,1.18-.07,2.22-.07,7.83v.78c0,.18.11.26.22.26h14.11Z"/>
  <path class="k" d="M140.76,1167.88c0,4.55.91,6.47,2.45,7.72,1.41,1.16,2.86,1.29,3.92,1.29,1.38,0,3.08-.44,4.33-1.69,1.73-1.73,1.82-4.55,1.82-7.78v-3.92c0-4.77,0-5.65-.06-6.65-.06-1.07-.31-1.57-1.35-1.79-.25-.06-.78-.09-1.13-.09s-.53-.06-.53-.28.22-.28.69-.28c1.6,0,3.58.09,3.61.09.38,0,2.35-.09,3.58-.09.44,0,.66.06.66.28s-.19.28-.56.28c-.35,0-.53.03-.91.09-.85.16-1.1.69-1.16,1.79-.06,1-.06,1.88-.06,6.65v3.36c0,3.48-.35,7.19-2.98,9.45-2.23,1.91-4.49,2.26-6.53,2.26-1.66,0-4.68-.09-6.97-2.17-1.6-1.44-2.79-3.77-2.79-8.32v-4.58c0-4.77,0-5.65-.06-6.65-.06-1.07-.31-1.57-1.35-1.79-.25-.06-.78-.09-1.22-.09-.35,0-.53-.06-.53-.28s.22-.28.69-.28c1.66,0,3.64.09,4.58.09.75,0,2.73-.09,3.86-.09.47,0,.69.06.69.28s-.19.28-.5.28c-.35,0-.53.03-.91.09-.85.16-1.1.69-1.16,1.79-.06,1-.06,1.88-.06,6.65v4.39Z"/>
  <path class="k" d="M166.69,1154.92c0-.63.09-1.07.41-1.07.35,0,.63.41,1.16.97.38.41,5.15,5.52,9.73,10.08,2.13,2.13,6.53,6.81,7.06,7.31l-.31-14.25c-.03-1.91-.31-2.51-1.07-2.82-.47-.19-1.22-.19-1.66-.19-.38,0-.5-.09-.5-.28,0-.25.35-.28.82-.28,1.63,0,3.14.09,3.8.09.35,0,1.54-.09,3.08-.09.41,0,.72.03.72.28,0,.19-.19.28-.56.28-.31,0-.57,0-.94.09-.88.25-1.13.91-1.16,2.67-.13,6.62-.22,13.18-.35,19.81,0,.69-.13.97-.41.97-.35,0-.72-.35-1.07-.69-1.98-1.88-6-6-9.26-9.23-3.42-3.39-7-7.41-7.56-8l.35,13.28c.06,2.45.47,3.26,1.1,3.48.53.19,1.13.22,1.63.22.35,0,.53.06.53.25,0,.25-.28.31-.72.31-2.04,0-3.3-.09-3.89-.09-.28,0-1.76.09-3.39.09-.41,0-.69-.03-.69-.31,0-.19.19-.25.5-.25.41,0,.97-.03,1.41-.16.82-.25.94-1.16.97-3.89.09-6.65.22-14.41.28-18.58Z"/>
  <path class="k" d="M207.21,1169.01c0,2.89,0,5.37.16,6.72.09.88.28,1.57,1.22,1.69.44.06,1.13.13,1.6.13.35,0,.5.09.5.25,0,.22-.25.31-.6.31-2.07,0-4.05-.09-4.93-.09-.72,0-2.7.09-3.96.09-.41,0-.63-.09-.63-.31,0-.16.13-.25.5-.25.47,0,.85-.06,1.13-.13.63-.13.82-.82.91-1.73.16-1.32.16-3.8.16-6.69v-12.87c-1.19.03-3.14.09-4.68.13-1.82.06-2.57.22-3.04.91-.31.47-.47.85-.53,1.1-.06.25-.16.38-.35.38-.22,0-.28-.16-.28-.5,0-.5.6-3.36.66-3.61.09-.41.19-.6.38-.6.25,0,.57.31,1.35.38.91.09,2.1.16,3.14.16h12.43c1,0,1.7-.09,2.17-.16.47-.09.72-.16.85-.16.22,0,.25.19.25.66,0,.66-.09,2.83-.09,3.64-.03.31-.09.5-.28.5-.25,0-.31-.16-.35-.63,0-.09-.03-.25-.03-.35-.06-.82-.91-1.69-3.7-1.76-.82-.03-2.1-.06-3.96-.09v12.87Z"/>
  <path class="k" d="M223.68,1163.49c0-4.77,0-5.65-.06-6.65-.06-1.07-.31-1.57-1.35-1.79-.25-.06-.78-.09-1.22-.09-.35,0-.53-.06-.53-.28s.22-.28.69-.28c1.44,0,2.89.09,4.52.09,1,0,7.25,0,7.85-.03.6-.06,1.1-.13,1.35-.19.16-.03.35-.13.5-.13s.19.13.19.28c0,.22-.16.6-.25,2.04-.03.31-.09,1.69-.16,2.07-.03.16-.09.35-.31.35s-.28-.19-.28-.56c0-.13-.03-.63-.19-1-.22-.57-.53-.94-2.1-1.13-.53-.06-3.83-.13-4.46-.13-.16,0-.22.09-.22.31v7.94c0,.22.03.35.22.35.69,0,4.3,0,5.02-.06.75-.06,1.22-.16,1.51-.47.22-.25.35-.41.5-.41.13,0,.22.06.22.25s-.13.69-.25,2.29c-.03.63-.13,1.88-.13,2.1,0,.25,0,.6-.28.6-.22,0-.28-.35-.28-.5-.03-.31-.03-.5-.13-.91-.16-.63-.6-1.1-1.76-1.22-.6-.06-3.7-.09-4.46-.09-.16,0-.19.13-.19.31v2.48c0,1.07-.03,3.95,0,4.87.06,2.17.57,2.64,3.77,2.64.82,0,2.13,0,2.95-.38.82-.38,1.19-1.04,1.41-2.32.06-.35.13-.47.35-.47.25,0,.25.25.25.57,0,.72-.25,2.86-.41,3.48-.22.82-.5.82-1.69.82-2.79,0-5.56-.19-8.69-.19-1.26,0-2.54.09-3.96.09-.41,0-.63-.09-.63-.31,0-.16.13-.25.5-.25.47,0,.85-.06,1.13-.13.63-.13.78-.82.91-1.73.16-1.32.16-3.8.16-6.69v-5.52Z"/>
  <path class="k" d="M245.56,1163.49c0-4.77,0-5.65-.06-6.65-.06-1.07-.31-1.57-1.35-1.79-.25-.06-.78-.09-1.22-.09-.35,0-.53-.06-.53-.28s.22-.28.69-.28c1.66,0,3.64.09,4.3.09,1.07,0,3.45-.09,4.43-.09,1.98,0,4.08.19,5.78,1.35.88.6,2.13,2.2,2.13,4.3,0,2.32-.94,4.43-4.11,7,2.79,3.52,4.96,6.34,6.81,8.29,1.76,1.82,3.01,2.04,3.48,2.13.35.06.63.09.88.09s.38.09.38.25c0,.25-.22.31-.6.31h-3.08c-1.76,0-2.54-.16-3.36-.6-1.35-.72-2.54-2.2-4.3-4.61-1.26-1.73-2.7-3.86-3.11-4.33-.16-.19-.35-.22-.57-.22l-2.64-.06c-.16,0-.25.06-.25.25v.44c0,2.92,0,5.4.16,6.72.09.91.28,1.6,1.22,1.73.47.06,1.16.13,1.54.13.25,0,.38.09.38.25,0,.22-.22.31-.63.31-1.82,0-4.14-.09-4.61-.09-.6,0-2.57.09-3.83.09-.41,0-.63-.09-.63-.31,0-.16.13-.25.5-.25.47,0,.85-.06,1.13-.13.63-.13.78-.82.91-1.73.16-1.32.16-3.8.16-6.69v-5.52ZM249.26,1165.97c0,.35.06.47.28.57.66.22,1.6.31,2.39.31,1.26,0,1.66-.13,2.23-.53.94-.69,1.85-2.13,1.85-4.71,0-4.46-2.95-5.74-4.8-5.74-.78,0-1.35.03-1.66.13-.22.06-.28.19-.28.44v9.54Z"/>
  <path class="f" d="M286.37,1160.93c0-5.61,0-6.65-.07-7.83-.07-1.26-.37-1.85-1.59-2.1-.3-.07-.92-.11-1.44-.11-.41,0-.63-.07-.63-.33s.26-.33.81-.33c1.96,0,4.28.11,5.02.11,1.81,0,3.25-.11,4.51-.11,6.68,0,7.87,3.58,7.87,5.54,0,3.03-1.74,4.84-3.77,6.46,3.03,1.03,6.72,3.66,6.72,7.98,0,3.95-3.07,8.05-9.86,8.05-1.7,0-3.4-.22-5.35-.22-1.48,0-2.99.11-4.65.11-.48,0-.74-.11-.74-.37,0-.18.15-.3.59-.3.55,0,1.07-.07,1.4-.18.7-.22.85-.92,1-1.99.18-1.55.18-4.47.18-7.87v-6.5ZM290.8,1161.55c0,.3.11.37.26.41.33.07.89.11,1.74.11,1.22,0,2.03-.15,2.66-.7.96-.78,1.51-2.1,1.51-3.91,0-2.47-1.44-5.72-4.62-5.72-.52,0-.85,0-1.22.07-.26.07-.33.22-.33.63v9.12ZM290.8,1166.58v6.02c0,2.44.11,3.07,1.29,3.55,1,.41,1.85.44,2.7.44,1.66,0,4.47-.89,4.47-4.73,0-2.29-.78-5.39-3.58-7.35-.78-.55-1.62-.81-3.06-.89-.66-.04-1.03-.04-1.59-.04-.15,0-.22.07-.22.26v2.73Z"/>
  <path class="f" d="M315.18,1169.92c-.16,0-.22.06-.28.25l-1.69,4.49c-.31.78-.47,1.54-.47,1.91,0,.57.28.97,1.26.97h.47c.38,0,.47.06.47.25,0,.25-.19.31-.53.31-1,0-2.35-.09-3.33-.09-.35,0-2.07.09-3.7.09-.41,0-.6-.06-.6-.31,0-.19.19-.25.44-.25.28,0,.66-.03.91-.06,1.44-.19,2.04-1.26,2.67-2.82l7.88-19.71c.38-.91.6-1.26.88-1.26.25,0,.47.28.78,1,.75,1.73,5.78,14.53,7.78,19.3,1.19,2.82,2.1,3.26,2.76,3.42.47.09.94.13,1.32.13.25,0,.41.06.41.25,0,.25-.28.31-1.44.31s-3.64,0-6.15-.06c-.57-.03-.72-.06-.72-.25,0-.16.13-.25.44-.28.22-.06.44-.35.28-.72l-2.51-6.65c-.06-.16-.16-.22-.31-.22h-7ZM321.59,1168.36c.16,0,.19-.09.16-.19l-2.82-7.75c-.09-.28-.22-.38-.35,0l-2.89,7.72c-.03.13,0,.22.13.22h5.78Z"/>
  <path class="f" d="M338.25,1163.49c0-4.77,0-5.65-.06-6.65-.06-1.07-.31-1.57-1.35-1.79-.25-.06-.79-.09-1.22-.09-.35,0-.53-.06-.53-.28s.22-.28.69-.28c1.66,0,3.64.09,4.3.09,1.07,0,3.45-.09,4.43-.09,1.98,0,4.08.19,5.78,1.35.88.6,2.13,2.2,2.13,4.3,0,2.32-.94,4.43-4.11,7,2.79,3.52,4.96,6.34,6.81,8.29,1.76,1.82,3.01,2.04,3.48,2.13.35.06.63.09.88.09s.38.09.38.25c0,.25-.22.31-.6.31h-3.08c-1.76,0-2.54-.16-3.36-.6-1.35-.72-2.54-2.2-4.3-4.61-1.26-1.73-2.7-3.86-3.11-4.33-.16-.19-.35-.22-.56-.22l-2.64-.06c-.16,0-.25.06-.25.25v.44c0,2.92,0,5.4.16,6.72.09.91.28,1.6,1.22,1.73.47.06,1.16.13,1.54.13.25,0,.38.09.38.25,0,.22-.22.31-.63.31-1.82,0-4.14-.09-4.61-.09-.6,0-2.57.09-3.83.09-.41,0-.63-.09-.63-.31,0-.16.13-.25.5-.25.47,0,.85-.06,1.13-.13.63-.13.78-.82.91-1.73.16-1.32.16-3.8.16-6.69v-5.52ZM341.96,1165.97c0,.35.06.47.28.57.66.22,1.6.31,2.39.31,1.26,0,1.66-.13,2.23-.53.94-.69,1.85-2.13,1.85-4.71,0-4.46-2.95-5.74-4.8-5.74-.78,0-1.35.03-1.66.13-.22.06-.28.19-.28.44v9.54Z"/>
  <path class="f" d="M366.81,1167.88c0,4.55.91,6.47,2.45,7.72,1.41,1.16,2.86,1.29,3.92,1.29,1.38,0,3.08-.44,4.33-1.69,1.73-1.73,1.82-4.55,1.82-7.78v-3.92c0-4.77,0-5.65-.06-6.65-.06-1.07-.31-1.57-1.35-1.79-.25-.06-.78-.09-1.13-.09-.35,0-.53-.06-.53-.28s.22-.28.69-.28c1.66,0,3.64.09,4.58.09.75,0,2.73-.09,3.86-.09.47,0,.69.06.69.28s-.19.28-.5.28c-.35,0-.53.03-.91.09-.85.16-1.1.69-1.16,1.79-.06,1-.06,1.88-.06,6.65v4.39Z"/>
  <path class="f" d="M393.96,1175.14c-3.08-2.7-3.89-6.22-3.89-9.26,0-2.13.66-5.84,3.67-8.6,2.26-2.07,5.24-3.33,9.92-3.33,1.95,0,3.11.13,4.55.31,1.19.16,2.29.44,3.23.53.35.03.38.19.38.38,0,.25-.09.63-.16,1.73-.06,1.04-.03,2.76-.09,3.39-.03.47-.09.75-.38.75-.25,0-.31-.28-.31-.72-.03-.97-.44-2.07-1.22-2.89-1.04-1.1-3.48-1.95-6.37-1.95-2.73,0-4.52.69-5.9,1.95-2.29,2.1-2.89,5.09-2.89,8.13,0,7.47,5.68,11.17,9.89,11.17,2.79,0,4.49-.31,5.74-1.76.53-.6.94-1.51,1.07-2.07.09-.5.16-.63.41-.63.22,0,.28.22.28.47,0,.38-.38,3.11-.69,4.17-.16.53-.28.69-.82.91-1.26.5-3.64.72-5.65.72-4.3,0-7.91-.94-10.77-3.42Z"/>
  <path class="f" d="M436.99,1164.37c.09,0,.19-.06.19-.22v-.66c0-4.77,0-5.65-.06-6.65-.06-1.07-.31-1.57-1.35-1.79-.25-.06-.78-.09-1.22-.09-.35,0-.53-.06-.53-.28s.22-.28.66-.28c1.7,0,3.67.09,4.52.09.75,0,2.73-.09,3.96-.09.44,0,.66.06.66.28s-.19.28-.57.28c-.25,0-.53.03-.91.09-.85.16-1.1.69-1.16,1.79-.06,1-.06,1.88-.06,6.65v5.52c0,2.89,0,5.37.16,6.72.09.88.28,1.57,1.22,1.69.44.06,1.13.13,1.6.13.35,0,.5.09.5.25,0,.22-.25.31-.63.31-2.04,0-4.02-.09-4.9-.09-.72,0-2.7.09-3.92.09-.44,0-.66-.09-.66-.31,0-.16.13-.25.5-.25.47,0,.85-.06,1.13-.13.63-.13.78-.82.91-1.73.16-1.32.16-3.8.16-6.69v-2.76c0-.13-.09-.19-.19-.19h-11.99c-.09,0-.19.03-.19.19v2.76c0,2.89,0,5.37.16,6.72.09.88.28,1.57,1.22,1.69.44.06,1.13.13,1.6.13.35,0,.5.09.5.25,0,.22-.25.31-.63.31-2.04,0-4.02-.09-4.9-.09-.72,0-2.7.09-3.96.09-.41,0-.63-.09-.63-.31,0-.16.13-.25.5-.25.47,0,.85-.06,1.13-.13.63-.13.78-.82.91-1.73.16-1.32.16-3.8.16-6.69v-5.52c0-4.77,0-5.65-.06-6.65-.06-1.07-.31-1.57-1.35-1.79-.25-.06-.79-.09-1.22-.09-.35,0-.53-.06-.53-.28s.22-.28.66-.28c1.69,0,3.67.09,4.52.09.75,0,2.73-.09,3.96-.09.44,0,.66.06.66.28s-.28.28-.57.28c-.25,0-.66.03-.91.06-.85.13-1.1.72-1.16,1.82-.06,1-.06,1.88-.06,6.65v.66c0,.16.09.22.19.22h11.99Z"/>
  <g>
    <rect x="97.84" y="1197.82" width="79.7" height="1.35"/>
    <rect x="363.7" y="1197.82" width="79.7" height="1.35"/>
    <g>
      <path d="M189.43,1191.16v6.6h9v1.54h-9v7.13h-1.84v-16.8h11.93v1.54h-10.09Z"/>
      <path d="M207.05,1189.63h1.84v16.8h-1.84v-16.8Z"/>
      <path d="M232.82,1189.63v16.8h-1.52l-11.18-13.63v13.63h-1.84v-16.8h1.52l11.21,13.63v-13.63h1.81Z"/>
      <path d="M253.13,1201.94h-9.69l-2.09,4.49h-1.91l7.95-16.8h1.81l7.95,16.8h-1.94l-2.09-4.49ZM252.45,1200.5l-4.18-9.02-4.18,9.02h8.35Z"/>
      <path d="M278.3,1189.63v16.8h-1.52l-11.18-13.63v13.63h-1.84v-16.8h1.52l11.21,13.63v-13.63h1.81Z"/>
      <path d="M286.15,1198.03c0-4.92,3.88-8.54,9.12-8.54,2.53,0,4.82.82,6.36,2.45l-1.17,1.13c-1.42-1.39-3.16-1.99-5.14-1.99-4.2,0-7.36,2.98-7.36,6.96s3.16,6.96,7.36,6.96c1.99,0,3.73-.6,5.14-2.02l1.17,1.13c-1.54,1.63-3.83,2.47-6.39,2.47-5.22,0-9.1-3.62-9.1-8.54Z"/>
      <path d="M309.29,1189.63h1.84v16.8h-1.84v-16.8Z"/>
      <path d="M331.43,1201.94h-9.69l-2.09,4.49h-1.91l7.95-16.8h1.81l7.95,16.8h-1.94l-2.09-4.49ZM330.76,1200.5l-4.18-9.02-4.17,9.02h8.35Z"/>
      <path d="M342.07,1189.63h1.84v15.27h9.74v1.54h-11.58v-16.8Z"/>
    </g>
  </g>
</svg>
